<?xml version="1.0" encoding="iso-8859-1"?>
<!-- Uploaded to: SVG Repo, www.svgrepo.com, Generator: SVG Repo Mixer Tools -->
<svg fill="#831308" height="800px" width="800px" version="1.1" id="Layer_1" xmlns="http://www.w3.org/2000/svg" xmlns:xlink="http://www.w3.org/1999/xlink"
	 viewBox="0 0 512 512" xml:space="preserve">
<g>
	<g>
		<g>
			<path d="M159.996,362.667h-42.667c-11.782,0-21.333,9.551-21.333,21.333c0,11.782,9.551,21.333,21.333,21.333v21.333
				c0,11.782,9.551,21.333,21.333,21.333c11.782,0,21.333-9.551,21.333-21.333v-21.333c11.782,0,21.333-9.551,21.333-21.333
				C181.329,372.218,171.778,362.667,159.996,362.667z"/>
			<path d="M495.081,112.915L388.414,6.248C384.413,2.248,378.987,0,373.329,0H95.996C84.214,0,74.662,9.551,74.662,21.333v192
				c0,0.038,0.005,0.075,0.006,0.113c-25.878,19.501-42.672,50.475-42.672,85.221v0c-11.778,0.005-21.325,9.554-21.325,21.333
				v113.237c0,43.112,32.714,78.763,74.027,78.763h107.925c41.314,0,74.048-35.653,74.048-78.763v-6.571h213.325
				c11.782,0,21.333-9.551,21.333-21.333V128C501.329,122.342,499.082,116.916,495.081,112.915z M449.826,128h-97.83V42.667h12.497
				L449.826,128z M138.662,234.667c35.151,0,64,28.849,64,64h-128C74.662,263.515,103.511,234.667,138.662,234.667z
				 M192.623,469.333H84.698c-16.89,0-31.36-15.768-31.36-36.096v-91.904h170.658v64c0,0.057,0.008,0.112,0.009,0.169v27.735
				C224.004,453.558,209.52,469.333,192.623,469.333z M266.671,384v-64c0-11.782-9.551-21.333-21.333-21.333h-0.009
				c0-58.715-47.951-106.667-106.667-106.667c-7.302,0-14.436,0.743-21.333,2.154V42.667h192v106.667
				c0,11.782,9.551,21.333,21.333,21.333h128V384H266.671z"/>
		</g>
	</g>
</g>
</svg>